#!OML:ASF I:\Actors\actors\Patient Classification 2\Patient 1\Session 1\actor1.ASF
:FULLY-SPECIFIED
:DEGREES
735
root -0.792943 18.2463 5.33872 1.42765 -4.44317 -5.50306
lowerback 10.1298 -0.128314 2.52162
upperback 2.44159 0.171365 2.33474
thorax -3.13772 0.069912 0.981188
lowerneck -2.48037 0.765784 6.99299
upperneck 11.0963 -0.495416 9.97024
head 4.15165 0.468671 2.12149
rclavicle 6.57232e-015 -2.26118e-014
rhumerus 0.0416005 17.6649 -53.4905
rradius 138.612
rwrist -36.5711
rhand 13.6989 -32.0444
rfingers 7.12502
rthumb 38.6256 -57.6707
lclavicle 6.57232e-015 -2.26118e-014
lhumerus -51.436 -17.328 100.684
lradius 85.7034
lwrist 20.6821
lhand -9.69168 -13.6727
lfingers 7.12502
lthumb 16.2805 15.6638
rfemur 0 0 0
rtibia 0
rfoot 0 0
rtoes 0
lfemur 15.495 -3.69917 -11.8114
ltibia -19.2269
lfoot -2.00075 21.6245
ltoes -8.74268
736
root -0.797914 18.2474 5.34487 1.50974 -4.65148 -5.39504
lowerback 10.1211 -0.0939477 2.32871
upperback 2.3893 0.196666 2.28885
thorax -3.18788 0.0831677 1.03892
lowerneck -2.44382 0.689467 6.98799
upperneck 11.1359 -0.59745 9.95638
head 4.16074 0.418684 2.11382
rclavicle -1.50331e-015 2.26118e-014
rhumerus 0.377196 19.899 -53.1979
rradius 139.758
rwrist -37.7199
rhand 13.7676 -33.1707
rfingers 7.12502
rthumb 38.6904 -58.7787
lclavicle -1.50331e-015 2.26118e-014
lhumerus -51.4979 -17.1907 100.581
lradius 85.4467
lwrist 20.7182
lhand -9.5571 -13.3159
lfingers 7.12502
lthumb 16.4101 16.01
rfemur 0 0 0
rtibia 0
rfoot 0 0
rtoes 0
lfemur 15.4152 -3.50769 -11.9072
ltibia -19.0816
lfoot -2.11307 21.6404
ltoes -8.88902
737
root -0.798592 18.2485 5.35621 1.58677 -4.87014 -5.27806
lowerback 10.2188 0.00695533 2.33625
upperback 2.2274 0.335429 2.15099
thorax -3.40953 0.149819 0.874297
lowerneck -2.31666 0.68486 6.94954
upperneck 11.2036 -0.60597 10.071
head 4.1622 0.418258 2.16062
rclavicle 6.81148e-015 2.39536e-014
rhumerus 0.0359126 21.0929 -53.0734
rradius 140.736
rwrist -38.3022
rhand 16.087 -33.1792
rfingers 7.12502
rthumb 40.8738 -58.1356
lclavicle 6.81148e-015 2.39536e-014
lhumerus -51.6993 -17.5187 100.57
lradius 85.2997
lwrist 20.7407
lhand -9.06324 -12.8085
lfingers 7.12502
lthumb 16.8856 16.4774
rfemur 0 0 0
rtibia 0
rfoot 0 0
rtoes 0
lfemur 15.3674 -3.46451 -12.0491
ltibia -18.941
lfoot -2.32128 21.79
ltoes -8.67526
738
root -0.798062 18.2489 5.37049 1.65502 -5.03404 -5.14356
lowerback 10.4406 0.144292 2.42892
upperback 1.94874 0.53787 1.96144
thorax -3.81936 0.244687 0.598584
lowerneck -2.11874 0.725735 6.98207
upperneck 11.3923 -0.555565 10.1233
head 4.19164 0.452492 2.17836
rclavicle -6.51796e-015 -1.33434e-014
rhumerus -1.04626 20.8828 -53.3362
rradius 141.352
rwrist -38.4361
rhand 17.1841 -33.2753
rfingers 7.12502
rthumb 41.9034 -57.8976
lclavicle -6.51796e-015 -1.33434e-014
lhumerus -52.028 -18.1991 100.671
lradius 85.2289
lwrist 20.6836
lhand -8.35592 -12.4784
lfingers 7.12502
lthumb 17.5664 16.748
rfemur 0 0 0
rtibia 0
rfoot 0 0
rtoes 0
lfemur 15.3432 -3.47002 -12.2214
ltibia -18.8588
lfoot -2.48729 21.907
ltoes -8.30067
739
root -0.797029 18.2479 5.38718 1.67967 -5.10847 -5.12579
lowerback 10.5561 0.280552 2.53017
upperback 1.77916 0.736539 1.88177
thorax -4.05649 0.338687 0.431133
lowerneck -1.95636 0.809451 6.91811
upperneck 11.4589 -0.420058 10.0733
head 4.1797 0.514405 2.17751
rclavicle -1.52427e-014 -2.24751e-014
rhumerus -2.3058 19.3407 -53.6349
rradius 141.276
rwrist -38.5353
rhand 17.4658 -32.2934
rfingers 7.12502
rthumb 42.1674 -56.8271
lclavicle -1.52427e-014 -2.24751e-014
lhumerus -52.1663 -18.9645 100.883
lradius 85.2208
lwrist 20.494
lhand -7.81304 -12.5059
lfingers 7.12502
lthumb 18.0887 16.673
rfemur 0 0 0
rtibia 0
rfoot 0 0
rtoes 0
lfemur 15.3922 -3.49413 -12.267
ltibia -18.8494
lfoot -2.54315 21.9845
ltoes -8.1546
740
root -0.794086 18.2449 5.40512 1.64995 -5.0805 -5.20657
lowerback 10.4168 0.351706 2.52454
upperback 1.83146 0.827527 1.98447
thorax -3.92539 0.385701 0.529618
lowerneck -1.88448 0.952515 6.59795
upperneck 11.3361 -0.175491 9.98848
head 4.11255 0.609316 2.20909
rclavicle -1.12702e-014 2.49847e-014
rhumerus -3.3123 17.3311 -53.7024
rradius 140.807
rwrist -39.0715
rhand 15.1775 -33.123
rfingers 7.12502
rthumb 40.0187 -58.3434
lclavicle -1.12702e-014 2.49847e-014
lhumerus -51.9679 -19.4428 101.122
lradius 85.321
lwrist 20.3235
lhand -7.55267 -12.759
lfingers 7.12502
lthumb 18.3392 16.3965
rfemur 0 0 0
rtibia 0
rfoot 0 0
rtoes 0
lfemur 15.5325 -3.61639 -12.2189
ltibia -18.9264
lfoot -2.53592 22.0735
ltoes -8.19668
741
root -0.791662 18.2411 5.41746 1.59708 -4.84275 -5.29582
lowerback 10.0526 0.300542 2.33264
upperback 2.08495 0.726098 2.22905
thorax -3.46619 0.343116 0.907473
lowerneck -1.98682 1.12062 6.19302
upperneck 11.1472 0.103623 9.81588
head 4.05332 0.715292 2.22681
rclavicle 1.82633e-015 -2.87741e-014
rhumerus -3.77653 15.3617 -53.6499
rradius 139.842
rwrist -39.1628
rhand 13.7107 -32.7683
rfingers 7.12502
rthumb 38.6367 -58.3915
lclavicle 1.82633e-015 -2.87741e-014
lhumerus -51.4416 -19.5194 101.284
lradius 85.4863
lwrist 20.2895
lhand -7.45616 -13.0285
lfingers 7.12502
lthumb 18.4321 16.1183
rfemur 0 0 0
rtibia 0
rfoot 0 0
rtoes 0
lfemur 15.657 -3.78445 -12.1361
ltibia -19.0768
lfoot -2.42703 22.0258
ltoes -8.38112
742
root -0.792184 18.2392 5.42488 1.56323 -4.48296 -5.4306
lowerback 10.4282 0.20681 2.56337
upperback 1.85788 0.649902 2.22355
thorax -3.90817 0.298836 0.780728
lowerneck -1.87116 1.0553 6.26166
upperneck 11.2345 0.0307123 9.66617
head 4.06237 0.678069 2.16056
rclavicle -1.94436e-015 3.47376e-014
rhumerus -4.79683 13.8698 -54.2396
rradius 138.618
rwrist -38.5659
rhand 12.5727 -32.1411
rfingers 7.12502
rthumb 37.5621 -58.0582
lclavicle -1.94436e-015 3.47376e-014
lhumerus -51.8498 -19.6109 101.422
lradius 85.7773
lwrist 20.3469
lhand -7.5834 -13.3656
lfingers 7.12502
lthumb 18.3097 15.7927
rfemur 0 0 0
rtibia 0
rfoot 0 0
rtoes 0
lfemur 15.7075 -3.92438 -11.9642
ltibia -19.2303
lfoot -2.27059 21.8596
ltoes -8.63575
